<svg width="11" height="22" viewBox="0 0 11 22" fill="none" xmlns="http://www.w3.org/2000/svg">
<path d="M10.1207 19.25H8.82319V4.87477C8.82319 3.70344 8.474 2.74996 8.04468 2.74996H6.22814V5.49997H7.78517V22H10.1207C10.2641 22 10.3802 21.6923 10.3802 21.3125V19.9375C10.3802 19.5577 10.2641 19.25 10.1207 19.25ZM5.06425 0.0433567L1.95019 2.18063C1.71906 2.33918 1.55703 2.90895 1.55703 3.56293V19.25H0.259506C0.116129 19.25 0 19.5577 0 19.9375V21.3125C0 21.6923 0.116129 22 0.259506 22H5.70913V1.42566C5.70913 0.498397 5.39188 -0.1818 5.06425 0.0433567ZM4.28184 12.375C4.06694 12.375 3.89259 11.7592 3.89259 11C3.89259 10.2407 4.06694 9.62498 4.28184 9.62498C4.49675 9.62498 4.6711 10.2407 4.6711 11C4.6711 11.7592 4.49675 12.375 4.28184 12.375Z" fill="#9C9C9C"/>
</svg>
