<svg width="75" height="71" viewBox="0 0 75 71" fill="none" xmlns="http://www.w3.org/2000/svg">
<path fill-rule="evenodd" clip-rule="evenodd" d="M37.5 64.7188C54.7762 64.7188 68.7812 51.6371 68.7812 35.5C68.7812 19.3629 54.7762 6.28125 37.5 6.28125C20.2238 6.28125 6.21875 19.3629 6.21875 35.5C6.21875 51.6371 20.2238 64.7188 37.5 64.7188ZM37.5 70.0312C57.9173 70.0312 74.4688 54.5711 74.4688 35.5C74.4688 16.4289 57.9173 0.96875 37.5 0.96875C17.0827 0.96875 0.53125 16.4289 0.53125 35.5C0.53125 54.5711 17.0827 70.0312 37.5 70.0312Z" fill="#1521CF"/>
<path fill-rule="evenodd" clip-rule="evenodd" d="M54.9769 20.9914C56.2636 21.8327 56.5765 23.4889 55.6758 24.6908L37.1914 49.3559C36.6958 50.0174 35.9049 50.4323 35.0423 50.4836C34.1797 50.5348 33.339 50.2169 32.7575 49.6195L19.5544 36.0536C18.498 34.9681 18.5836 33.2882 19.7457 32.3014C20.9078 31.3146 22.7064 31.3946 23.7628 32.48L34.5725 43.5867L51.0164 21.6442C51.9171 20.4424 53.6903 20.1501 54.9769 20.9914Z" fill="#1521CF"/>
</svg>
