<svg width="28" height="28" viewBox="0 0 28 28" fill="none" xmlns="http://www.w3.org/2000/svg">
<path d="M13.7544 0C6.16196 0 0 6.1036 0 13.6241C0 21.1446 6.16196 27.2482 13.7544 27.2482C21.3468 27.2482 27.5088 21.1446 27.5088 13.6241C27.5088 6.1036 21.3468 0 13.7544 0ZM13.7544 4.08723C16.0376 4.08723 17.8807 5.91286 17.8807 8.17446C17.8807 10.4361 16.0376 12.2617 13.7544 12.2617C11.4712 12.2617 9.62807 10.4361 9.62807 8.17446C9.62807 5.91286 11.4712 4.08723 13.7544 4.08723ZM13.7544 23.4335C10.3158 23.4335 7.27607 21.6896 5.50175 19.0465C5.54302 16.3353 11.0035 14.8503 13.7544 14.8503C16.4915 14.8503 21.9658 16.3353 22.007 19.0465C20.2327 21.6896 17.193 23.4335 13.7544 23.4335Z" fill="#9C9C9C"/>
</svg>
